# 3ds Max Wavefront OBJ Exporter v0.99 - (c)2007 guruware
# File Created: 13.06.2022 11:37:14

mtllib obj chair.mtl

#
# object Box001
#

v  -11.4358 18.0805 13.6279
v  -11.1264 18.0805 -3.6447
v  11.1260 18.0805 -3.6447
v  11.4360 18.0805 13.6279
v  11.4360 20.2716 13.6279
v  11.1260 20.2716 -3.6447
v  -11.1264 20.2716 -3.6447
v  -11.4358 20.2716 13.6279
v  -9.0893 18.0805 15.9632
v  9.0890 18.0805 15.9632
v  9.0890 20.2716 15.9632
v  -9.0893 20.2716 15.9632
v  10.4543 18.0805 -5.9800
v  -10.4543 18.0805 -5.9800
v  -10.4543 20.2716 -5.9800
v  10.4543 20.2716 -5.9800
v  -9.1658 15.2136 -5.6734
v  9.1658 15.2136 -5.6734
v  9.1658 15.2136 -4.7740
v  -9.1658 15.2136 -4.7740
v  -9.1658 18.4233 -5.6734
v  -9.1658 18.4233 -4.7740
v  9.1658 18.4233 -4.7740
v  9.1658 18.4233 -5.6734
v  -9.1658 15.2136 12.7651
v  9.1658 15.2136 12.7651
v  9.1658 15.2136 13.6645
v  -9.1658 15.2136 13.6645
v  -9.1658 18.4233 12.7651
v  -9.1658 18.4233 13.6645
v  9.1658 18.4233 13.6645
v  9.1658 18.4233 12.7651
v  8.7413 15.2136 13.2326
v  8.7413 15.2136 -5.0990
v  9.6407 15.2136 -5.0990
v  9.6407 15.2136 13.2326
v  8.7413 18.4233 13.2326
v  9.6407 18.4233 13.2326
v  9.6407 18.4233 -5.0990
v  8.7413 18.4233 -5.0990
v  8.8753 -0.0000 -5.4672
v  8.8753 -0.0000 -7.0960
v  9.9247 -0.0000 -7.0960
v  9.9247 -0.0000 -5.4672
v  8.9104 42.9534 -5.5217
v  9.8896 42.9534 -5.5217
v  9.8896 42.9534 -7.0416
v  8.9104 42.9534 -7.0416
v  10.3064 19.6698 -4.1401
v  8.4936 19.6698 -4.1401
v  10.3064 19.6698 -6.9540
v  8.4936 19.6698 -6.9540
v  9.9881 0.2790 12.9229
v  9.9718 0.2790 14.7317
v  8.8066 0.2790 14.7212
v  8.8229 0.2790 12.9124
v  8.5103 19.6698 11.6724
v  10.3230 19.6698 11.6888
v  8.4849 19.6698 14.4862
v  10.2976 19.6698 14.5026
v  9.4570 11.0841 13.8074
v  9.4570 10.8473 13.2428
v  9.4570 11.5108 12.7900
v  9.4570 12.5751 12.7900
v  9.4570 13.2386 13.2428
v  9.4570 13.0018 13.8074
v  9.4570 12.0430 14.0587
v  -9.2696 13.0018 13.8074
v  -9.2696 12.0430 14.0587
v  -9.2696 13.2386 13.2428
v  -9.2696 12.5751 12.7900
v  -9.2696 11.5108 12.7900
v  -9.2696 10.8473 13.2428
v  -9.2696 11.0841 13.8074
v  9.8731 8.4494 -5.7974
v  9.3085 8.2126 -5.7974
v  8.8557 8.8761 -5.7974
v  8.8557 9.9404 -5.7974
v  9.3085 10.6039 -5.7974
v  9.8731 10.3671 -5.7974
v  10.1244 9.4082 -5.7974
v  9.8731 10.3671 12.9292
v  10.1244 9.4082 12.9292
v  9.3085 10.6039 12.9292
v  8.8557 9.9404 12.9292
v  8.8557 8.8761 12.9292
v  9.3085 8.2126 12.9292
v  9.8731 8.4494 12.9292
v  9.4570 11.0841 -5.4212
v  9.4570 10.8473 -5.9858
v  9.4570 11.5108 -6.4386
v  9.4570 12.5751 -6.4386
v  9.4570 13.2386 -5.9858
v  9.4570 13.0018 -5.4212
v  9.4570 12.0430 -5.1699
v  -9.2696 13.0018 -5.4212
v  -9.2696 12.0430 -5.1699
v  -9.2696 13.2386 -5.9858
v  -9.2696 12.5751 -6.4386
v  -9.2696 11.5108 -6.4386
v  -9.2696 10.8473 -5.9858
v  -9.2696 11.0841 -5.4212
v  -9.9247 -0.0000 -5.4672
v  -9.9247 -0.0000 -7.0960
v  -8.8753 -0.0000 -7.0960
v  -8.8753 -0.0000 -5.4672
v  -9.8896 42.9534 -5.5217
v  -8.9104 42.9534 -5.5217
v  -8.9104 42.9534 -7.0416
v  -9.8896 42.9534 -7.0416
v  -8.4936 19.6698 -4.1401
v  -10.3064 19.6698 -4.1401
v  -8.4936 19.6698 -6.9540
v  -10.3064 19.6698 -6.9540
v  -9.6403 15.2136 13.2326
v  -9.6403 15.2136 -5.0990
v  -8.7409 15.2136 -5.0990
v  -8.7409 15.2136 13.2326
v  -9.6403 18.4233 13.2326
v  -8.7409 18.4233 13.2326
v  -8.7409 18.4233 -5.0990
v  -9.6403 18.4233 -5.0990
v  -8.8120 0.2790 12.9229
v  -8.8284 0.2790 14.7317
v  -9.9936 0.2790 14.7212
v  -9.9773 0.2790 12.9124
v  -10.2898 19.6698 11.6724
v  -8.4771 19.6698 11.6888
v  -10.3152 19.6698 14.4862
v  -8.5025 19.6698 14.5026
v  -9.0411 8.4494 -5.7974
v  -9.6057 8.2126 -5.7974
v  -10.0585 8.8761 -5.7974
v  -10.0585 9.9404 -5.7974
v  -9.6057 10.6039 -5.7974
v  -9.0411 10.3671 -5.7974
v  -8.7898 9.4082 -5.7974
v  -9.0411 10.3671 12.9292
v  -8.7898 9.4082 12.9292
v  -9.6057 10.6039 12.9292
v  -10.0585 9.9404 12.9292
v  -10.0585 8.8761 12.9292
v  -9.6057 8.2126 12.9292
v  -9.0411 8.4494 12.9292
v  -11.0675 27.7907 -5.3586
v  -11.0675 27.7374 -6.2706
v  11.3007 27.7374 -6.2706
v  11.3007 27.7907 -5.3586
v  -11.0675 30.9694 -5.5443
v  11.3007 30.9694 -5.5443
v  11.3007 30.9162 -6.4563
v  -11.0675 30.9162 -6.4563
v  -11.7579 36.7818 -5.4972
v  -11.7579 36.7312 -6.3634
v  11.4318 36.7312 -6.3634
v  11.4318 36.7818 -5.4972
v  -11.7579 41.9702 -5.8003
v  11.4318 41.9702 -5.8003
v  11.4318 41.9196 -6.6665
v  -11.7579 41.9196 -6.6665
# 160 vertices

vn -0.7267 -0.6361 0.2594
vn -0.7246 -0.6830 -0.0918
vn 0.7246 -0.6830 -0.0918
vn 0.7267 -0.6360 0.2595
vn 0.7267 0.6361 0.2594
vn 0.7246 0.6830 -0.0918
vn -0.7246 0.6830 -0.0918
vn -0.7267 0.6361 0.2594
vn -0.3295 -0.6234 0.7091
vn 0.3294 -0.6235 0.7091
vn 0.3294 0.6235 0.7091
vn -0.3295 0.6234 0.7091
vn 0.4991 -0.5908 -0.6339
vn -0.4990 -0.5909 -0.6339
vn -0.4990 0.5909 -0.6339
vn 0.4991 0.5908 -0.6339
vn -0.5774 -0.5774 -0.5774
vn 0.5774 -0.5774 -0.5774
vn 0.5774 -0.5774 0.5774
vn -0.5774 -0.5774 0.5774
vn -0.5774 0.5774 -0.5774
vn -0.5774 0.5774 0.5774
vn 0.5774 0.5774 0.5774
vn 0.5774 0.5774 -0.5774
vn -0.5765 -0.5883 0.5671
vn -0.5746 -0.5785 -0.5789
vn 0.5746 -0.5785 -0.5789
vn 0.5765 -0.5883 0.5671
vn -0.5765 0.5870 0.5683
vn 0.5765 0.5870 0.5683
vn 0.5749 0.5788 -0.5783
vn -0.5749 0.5788 -0.5783
vn 0.7018 -0.0017 0.7124
vn -0.7018 -0.0017 0.7124
vn 0.7095 0.0004 -0.7047
vn -0.7095 0.0004 -0.7047
vn 0.5819 -0.5876 -0.5622
vn 0.5696 -0.5774 0.5849
vn -0.5800 -0.5778 0.5742
vn -0.5717 -0.5873 -0.5729
vn -0.5726 0.5669 -0.5923
vn 0.5831 0.5673 -0.5815
vn -0.5850 0.5772 0.5697
vn 0.5747 0.5769 0.5805
vn 0.6339 -0.3715 0.6783
vn 0.5603 -0.7978 -0.2224
vn 0.6721 -0.1210 -0.7305
vn 0.6721 0.1210 -0.7305
vn 0.5603 0.7978 -0.2224
vn 0.6339 0.3716 0.6783
vn 0.6791 -0.0000 0.7341
vn -0.6339 0.3715 0.6783
vn -0.6790 0.0000 0.7341
vn -0.5603 0.7978 -0.2224
vn -0.6721 0.1210 -0.7305
vn -0.6721 -0.1210 -0.7305
vn -0.5603 -0.7978 -0.2224
vn -0.6339 -0.3715 0.6783
vn 0.6931 -0.3325 -0.6395
vn -0.2085 -0.8051 -0.5553
vn -0.7287 -0.1022 -0.6772
vn -0.7287 0.1022 -0.6772
vn -0.2084 0.8051 -0.5553
vn 0.6931 0.3325 -0.6396
vn 0.7301 0.0000 -0.6833
vn 0.6931 0.3325 0.6396
vn 0.7301 0.0000 0.6833
vn -0.2082 0.8052 0.5553
vn -0.7287 0.1022 0.6772
vn -0.7287 -0.1022 0.6772
vn -0.2082 -0.8052 0.5553
vn 0.6931 -0.3325 0.6396
vn -0.5821 -0.5315 0.6153
vn -0.5729 -0.6201 -0.5359
vn 0.5729 -0.6201 -0.5359
vn 0.5821 -0.5315 0.6153
vn -0.5729 0.6201 0.5359
vn 0.5729 0.6201 0.5359
vn 0.5821 0.5315 -0.6153
vn -0.5821 0.5315 -0.6153
vn -0.5821 -0.5316 0.6153
vn -0.5729 -0.6202 -0.5359
vn 0.5729 -0.6202 -0.5359
vn 0.5821 -0.5316 0.6153
vn -0.5729 0.6202 0.5359
vn 0.5729 0.6202 0.5359
vn 0.5821 0.5316 -0.6153
vn -0.5821 0.5316 -0.6153
# 88 vertex normals

vt 0.4196 0.2665 0.0000
vt 0.4225 0.0750 0.0000
vt 0.6296 0.0750 0.0000
vt 0.6325 0.2665 0.0000
vt 0.6325 0.3670 0.0000
vt 0.6296 0.5585 0.0000
vt 0.4225 0.5585 0.0000
vt 0.4196 0.3670 0.0000
vt 0.4414 0.2924 0.0000
vt 0.6106 0.2924 0.0000
vt 0.6106 0.3411 0.0000
vt 0.4414 0.3411 0.0000
vt 0.8415 0.0492 0.0000
vt 0.6500 0.0492 0.0000
vt 0.6500 0.0005 0.0000
vt 0.8415 0.0005 0.0000
vt 0.6233 0.0492 0.0000
vt 0.4287 0.0492 0.0000
vt 0.4287 0.0005 0.0000
vt 0.6233 0.0005 0.0000
vt 0.4021 0.0492 0.0000
vt 0.2106 0.0492 0.0000
vt 0.2106 0.0005 0.0000
vt 0.4021 0.0005 0.0000
vt 0.6233 0.5843 0.0000
vt 0.4287 0.5843 0.0000
vt 0.8753 0.0005 0.0000
vt 0.8753 0.0492 0.0000
vt 0.1767 0.0492 0.0000
vt 0.1767 0.0005 0.0000
vt 0.5541 0.6608 0.0000
vt 0.7248 0.6608 0.0000
vt 0.7248 0.6707 0.0000
vt 0.5541 0.6707 0.0000
vt 0.5541 0.7520 0.0000
vt 0.5541 0.7420 0.0000
vt 0.7248 0.7420 0.0000
vt 0.7248 0.7520 0.0000
vt 0.5442 0.6608 0.0000
vt 0.5442 0.5895 0.0000
vt 0.5541 0.5895 0.0000
vt 0.7347 0.6608 0.0000
vt 0.7248 0.5895 0.0000
vt 0.7347 0.5895 0.0000
vt 0.6448 0.4946 0.0000
vt 0.8154 0.4946 0.0000
vt 0.8154 0.5046 0.0000
vt 0.6448 0.5046 0.0000
vt 0.6448 0.5858 0.0000
vt 0.6448 0.5759 0.0000
vt 0.8154 0.5759 0.0000
vt 0.8154 0.5858 0.0000
vt 0.6348 0.4946 0.0000
vt 0.6348 0.4234 0.0000
vt 0.6448 0.4234 0.0000
vt 0.8254 0.4946 0.0000
vt 0.8154 0.4234 0.0000
vt 0.8254 0.4234 0.0000
vt 0.4166 0.8974 0.0000
vt 0.6199 0.8974 0.0000
vt 0.6199 0.9057 0.0000
vt 0.4166 0.9057 0.0000
vt 0.4166 0.9854 0.0000
vt 0.4166 0.9770 0.0000
vt 0.6199 0.9770 0.0000
vt 0.6199 0.9854 0.0000
vt 0.4083 0.8974 0.0000
vt 0.4083 0.8261 0.0000
vt 0.4166 0.8261 0.0000
vt 0.6282 0.8974 0.0000
vt 0.6199 0.8261 0.0000
vt 0.6282 0.8261 0.0000
vt 0.1634 0.0289 0.0000
vt 0.1629 0.0109 0.0000
vt 0.1726 0.0106 0.0000
vt 0.1732 0.0286 0.0000
vt 0.1626 0.9824 0.0000
vt 0.1717 0.9827 0.0000
vt 0.1713 0.9995 0.0000
vt 0.1622 0.9993 0.0000
vt 0.1948 0.4655 0.0000
vt 0.1780 0.4655 0.0000
vt 0.1158 0.0288 0.0000
vt 0.1343 0.0288 0.0000
vt 0.1318 0.4655 0.0000
vt 0.1012 0.4655 0.0000
vt 0.1449 0.0288 0.0000
vt 0.1474 0.4655 0.0000
vt 0.1342 0.9826 0.0000
vt 0.1166 0.9826 0.0000
vt 0.1449 0.9826 0.0000
vt 0.2157 0.0508 0.0000
vt 0.2358 0.0508 0.0000
vt 0.2358 0.0617 0.0000
vt 0.2156 0.0617 0.0000
vt 0.2670 0.0617 0.0000
vt 0.2778 0.0613 0.0000
vt 0.2976 0.4916 0.0000
vt 0.2807 0.4923 0.0000
vt 0.2330 0.4923 0.0000
vt 0.2019 0.4923 0.0000
vt 0.2468 0.0617 0.0000
vt 0.2496 0.4923 0.0000
vt 0.2331 0.5092 0.0000
vt 0.2019 0.5092 0.0000
vt 0.8274 0.2068 0.3019
vt 0.8230 0.1999 -0.6369
vt 0.8383 0.1968 -1.0547
vt 0.8617 0.1999 -0.6369
vt 0.8757 0.2068 0.3019
vt 0.8697 0.2123 1.0547
vt 0.8482 0.2123 1.0547
vt 0.8697 0.3866 1.0547
vt 0.8482 0.3866 1.0547
vt 0.7556 0.2123 1.0547
vt 0.7638 0.2123 1.0547
vt 0.7638 0.3866 1.0547
vt 0.7556 0.3866 1.0547
vt 0.7793 0.2123 1.0547
vt 0.7793 0.3866 1.0547
vt 0.8030 0.2123 1.0547
vt 0.8030 0.3866 1.0547
vt 0.8185 0.2123 1.0547
vt 0.8185 0.3866 1.0547
vt 0.8267 0.2123 1.0547
vt 0.8267 0.3866 1.0547
vt 0.8274 0.3921 1.0547
vt 0.8757 0.3921 0.3019
vt 0.8617 0.3990 -0.6369
vt 0.8383 0.4021 -1.0547
vt 0.8230 0.3990 -0.6369
vt 0.2665 0.5224 0.3019
vt 0.2618 0.5166 -0.6369
vt 0.2769 0.5140 -1.0547
vt 0.3004 0.5166 -0.6369
vt 0.3146 0.5223 0.3019
vt 0.3088 0.5270 1.0547
vt 0.2874 0.5270 1.0547
vt 0.3088 0.7346 1.0547
vt 0.2874 0.7346 1.0547
vt 0.1968 0.5270 1.0547
vt 0.2043 0.5270 1.0547
vt 0.2043 0.7346 1.0547
vt 0.1968 0.7346 1.0547
vt 0.2196 0.5270 1.0547
vt 0.2196 0.7346 1.0547
vt 0.2432 0.5270 1.0547
vt 0.2432 0.7346 1.0547
vt 0.2585 0.5270 1.0547
vt 0.2585 0.7346 1.0547
vt 0.2660 0.5270 1.0547
vt 0.2660 0.7346 1.0547
vt 0.2665 0.7393 1.0547
vt 0.3146 0.7393 0.3019
vt 0.3004 0.7451 -0.6369
vt 0.2769 0.7476 -1.0547
vt 0.2618 0.7450 -0.6369
vt 0.9483 0.0105 0.3019
vt 0.9439 0.0036 -0.6369
vt 0.9591 0.0005 -1.0547
vt 0.9826 0.0036 -0.6369
vt 0.9965 0.0105 0.3019
vt 0.9905 0.0160 1.0547
vt 0.9690 0.0160 1.0547
vt 0.9905 0.1903 1.0547
vt 0.9690 0.1903 1.0547
vt 0.8764 0.0160 1.0547
vt 0.8846 0.0160 1.0547
vt 0.8846 0.1903 1.0547
vt 0.8764 0.1903 1.0547
vt 0.9002 0.0160 1.0547
vt 0.9002 0.1903 1.0547
vt 0.9238 0.0160 1.0547
vt 0.9238 0.1903 1.0547
vt 0.9394 0.0160 1.0547
vt 0.9394 0.1903 1.0547
vt 0.9475 0.0160 1.0547
vt 0.9475 0.1903 1.0547
vt 0.9483 0.1958 1.0547
vt 0.9965 0.1958 0.3019
vt 0.9826 0.2027 -0.6369
vt 0.9591 0.2058 -1.0547
vt 0.9439 0.2027 -0.6369
vt 0.0627 0.0240 0.0000
vt 0.0619 0.0059 0.0000
vt 0.0717 0.0055 0.0000
vt 0.0725 0.0236 0.0000
vt 0.0619 0.9778 0.0000
vt 0.0710 0.9782 0.0000
vt 0.0704 0.9950 0.0000
vt 0.0613 0.9947 0.0000
vt 0.0942 0.4601 0.0000
vt 0.0773 0.4608 0.0000
vt 0.0151 0.0240 0.0000
vt 0.0336 0.0240 0.0000
vt 0.0311 0.4608 0.0000
vt 0.0005 0.4608 0.0000
vt 0.0442 0.0240 0.0000
vt 0.0467 0.4608 0.0000
vt 0.0942 0.4614 0.0000
vt 0.0336 0.9778 0.0000
vt 0.0159 0.9778 0.0000
vt 0.0443 0.9778 0.0000
vt 0.3210 0.6658 0.0000
vt 0.5242 0.6658 0.0000
vt 0.5242 0.6742 0.0000
vt 0.3210 0.6742 0.0000
vt 0.3210 0.7538 0.0000
vt 0.3210 0.7454 0.0000
vt 0.5242 0.7454 0.0000
vt 0.5242 0.7538 0.0000
vt 0.3126 0.6658 0.0000
vt 0.3126 0.5945 0.0000
vt 0.3210 0.5945 0.0000
vt 0.5326 0.6658 0.0000
vt 0.5242 0.5945 0.0000
vt 0.5326 0.5945 0.0000
vt 0.3214 0.0559 0.0000
vt 0.3415 0.0559 0.0000
vt 0.3415 0.0667 0.0000
vt 0.3214 0.0667 0.0000
vt 0.3727 0.0667 0.0000
vt 0.3836 0.0663 0.0000
vt 0.4033 0.4967 0.0000
vt 0.3864 0.4973 0.0000
vt 0.3387 0.4973 0.0000
vt 0.3076 0.4973 0.0000
vt 0.3526 0.0667 0.0000
vt 0.3554 0.4973 0.0000
vt 0.3388 0.5142 0.0000
vt 0.3076 0.5142 0.0000
vt 0.7095 0.1951 0.3019
vt 0.7048 0.1893 -0.6369
vt 0.7199 0.1868 -1.0547
vt 0.7434 0.1893 -0.6369
vt 0.7576 0.1951 0.3019
vt 0.7518 0.1998 1.0547
vt 0.7304 0.1998 1.0547
vt 0.7518 0.4074 1.0547
vt 0.7304 0.4074 1.0547
vt 0.6398 0.1998 1.0547
vt 0.6473 0.1998 1.0547
vt 0.6473 0.4074 1.0547
vt 0.6398 0.4074 1.0547
vt 0.6626 0.1998 1.0547
vt 0.6626 0.4074 1.0547
vt 0.6862 0.1998 1.0547
vt 0.6862 0.4074 1.0547
vt 0.7015 0.1998 1.0547
vt 0.7015 0.4074 1.0547
vt 0.7090 0.1998 1.0547
vt 0.7090 0.4074 1.0547
vt 0.7095 0.4120 1.0547
vt 0.7576 0.4120 0.3019
vt 0.7434 0.4178 -0.6369
vt 0.7199 0.4204 -1.0547
vt 0.7048 0.4178 -0.6369
vt 0.1868 0.9017 0.0000
vt 0.1868 0.8915 0.0000
vt 0.3950 0.8915 0.0000
vt 0.3950 0.9017 0.0000
vt 0.1868 0.9723 0.0000
vt 0.3950 0.9723 0.0000
vt 0.3950 0.9825 0.0000
vt 0.1868 0.9825 0.0000
vt 0.4052 0.9008 0.0000
vt 0.4052 0.9714 0.0000
vt 0.3950 0.8262 0.0000
vt 0.1868 0.8262 0.0000
vt 0.1868 0.7556 0.0000
vt 0.3950 0.7556 0.0000
vt 0.1767 0.9008 0.0000
vt 0.1767 0.9714 0.0000
vt 0.6495 0.0605 0.0000
vt 0.6495 0.0508 0.0000
vt 0.8653 0.0508 0.0000
vt 0.8653 0.0605 0.0000
vt 0.6495 0.1758 0.0000
vt 0.8653 0.1758 0.0000
vt 0.8653 0.1854 0.0000
vt 0.6495 0.1854 0.0000
vt 0.8749 0.0597 0.0000
vt 0.8749 0.1749 0.0000
vt 0.8456 0.9867 0.0000
vt 0.6298 0.9867 0.0000
vt 0.6298 0.8714 0.0000
vt 0.8456 0.8714 0.0000
vt 0.6398 0.0597 0.0000
vt 0.6398 0.1749 0.0000
# 289 texture coords

o Box001
g Box001
usemtl wire_057008136
s 2
f 1/1/1 2/2/2 3/3/3 4/4/4 
s 4
f 5/5/5 6/6/6 7/7/7 8/8/8 
s 8
f 9/9/9 10/10/10 11/11/11 12/12/12 
s 16
f 4/13/4 3/14/3 6/15/6 5/16/5 
s 32
f 13/17/13 14/18/14 15/19/15 16/20/16 
s 64
f 2/21/2 1/22/1 8/23/8 7/24/7 
s 2
f 2/2/2 14/18/14 13/17/13 3/3/3 
f 4/4/4 10/10/10 9/9/9 1/1/1 
s 4
f 6/6/6 16/25/16 15/26/15 7/7/7 
f 8/8/8 12/12/12 11/11/11 5/5/5 
s 16
f 3/14/3 13/17/13 16/20/16 6/15/6 
f 5/16/5 11/27/11 10/28/10 4/13/4 
s 64
f 1/22/1 9/29/9 12/30/12 8/23/8 
f 7/24/7 15/19/15 14/18/14 2/21/2 
s 2
f 17/31/17 18/32/18 19/33/19 20/34/20 
s 4
f 21/35/21 22/36/22 23/37/23 24/38/24 
s 8
f 17/31/17 20/39/20 22/40/22 21/41/21 
s 16
f 20/34/20 19/33/19 23/37/23 22/36/22 
s 32
f 19/42/19 18/32/18 24/43/24 23/44/23 
s 64
f 18/32/18 17/31/17 21/41/21 24/43/24 
s 2
f 25/45/17 26/46/18 27/47/19 28/48/20 
s 4
f 29/49/21 30/50/22 31/51/23 32/52/24 
s 8
f 25/45/17 28/53/20 30/54/22 29/55/21 
s 16
f 28/48/20 27/47/19 31/51/23 30/50/22 
s 32
f 27/56/19 26/46/18 32/57/24 31/58/23 
s 64
f 26/46/18 25/45/17 29/55/21 32/57/24 
s 2
f 33/59/20 34/60/17 35/61/18 36/62/19 
s 4
f 37/63/22 38/64/23 39/65/24 40/66/21 
s 8
f 33/59/20 36/67/19 38/68/23 37/69/22 
s 16
f 36/62/19 35/61/18 39/65/24 38/64/23 
s 32
f 35/70/18 34/60/17 40/71/21 39/72/24 
s 64
f 34/60/17 33/59/20 37/69/22 40/71/21 
s 2
f 41/73/25 42/74/26 43/75/27 44/76/28 
s 4
f 45/77/29 46/78/30 47/79/31 48/80/32 
s 8
f 41/73/25 44/76/28 49/81/33 50/82/34 
s 16
f 44/83/28 43/84/27 51/85/35 49/86/33 
s 32
f 43/84/27 42/87/26 52/88/36 51/85/35 
s 64
f 42/87/26 41/73/25 50/82/34 52/88/36 
s 8
f 49/81/33 46/78/30 45/77/29 50/82/34 
s 16
f 51/85/35 47/89/31 46/90/30 49/86/33 
s 32
f 52/88/36 48/91/32 47/89/31 51/85/35 
s 64
f 50/82/34 45/77/29 48/91/32 52/88/36 
s 2
f 53/92/37 54/93/38 55/94/39 56/95/40 
s 8
f 53/96/37 56/97/40 57/98/41 58/99/42 
s 16
f 56/95/40 55/94/39 59/100/43 57/101/41 
s 32
f 55/94/39 54/102/38 60/103/44 59/100/43 
s 64
f 54/102/38 53/96/37 58/99/42 60/103/44 
s off
f 57/101/41 59/100/43 60/104/44 58/105/42 
s 1
f 61/106/45 62/107/46 63/108/47 64/109/48 65/110/49 66/111/50 67/112/51 
s 8
f 67/112/51 66/111/50 68/113/52 69/114/53 
f 66/115/50 65/116/49 70/117/54 68/118/52 
f 65/116/49 64/119/48 71/120/55 70/117/54 
f 64/119/48 63/121/47 72/122/56 71/120/55 
f 63/121/47 62/123/46 73/124/57 72/122/56 
f 62/123/46 61/125/45 74/126/58 73/124/57 
f 61/125/45 67/112/51 69/114/53 74/126/58 
s 1
f 74/127/58 69/114/53 68/113/52 70/128/54 71/129/55 72/130/56 73/131/57 
f 75/132/59 76/133/60 77/134/61 78/135/62 79/136/63 80/137/64 81/138/65 
s 8
f 81/138/65 80/137/64 82/139/66 83/140/67 
f 80/141/64 79/142/63 84/143/68 82/144/66 
f 79/142/63 78/145/62 85/146/69 84/143/68 
f 78/145/62 77/147/61 86/148/70 85/146/69 
f 77/147/61 76/149/60 87/150/71 86/148/70 
f 76/149/60 75/151/59 88/152/72 87/150/71 
f 75/151/59 81/138/65 83/140/67 88/152/72 
s 1
f 88/153/72 83/140/67 82/139/66 84/154/68 85/155/69 86/156/70 87/157/71 
f 89/158/45 90/159/46 91/160/47 92/161/48 93/162/49 94/163/50 95/164/51 
s 8
f 95/164/51 94/163/50 96/165/52 97/166/53 
f 94/167/50 93/168/49 98/169/54 96/170/52 
f 93/168/49 92/171/48 99/172/55 98/169/54 
f 92/171/48 91/173/47 100/174/56 99/172/55 
f 91/173/47 90/175/46 101/176/57 100/174/56 
f 90/175/46 89/177/45 102/178/58 101/176/57 
f 89/177/45 95/164/51 97/166/53 102/178/58 
s 1
f 102/179/58 97/166/53 96/165/52 98/180/54 99/181/55 100/182/56 101/183/57 
s 2
f 103/184/25 104/185/26 105/186/27 106/187/28 
s 4
f 107/188/29 108/189/30 109/190/31 110/191/32 
s 8
f 103/184/25 106/187/28 111/192/33 112/193/34 
s 16
f 106/194/28 105/195/27 113/196/35 111/197/33 
s 32
f 105/195/27 104/198/26 114/199/36 113/196/35 
s 64
f 104/198/26 103/184/25 112/193/34 114/199/36 
s 8
f 111/200/33 108/189/30 107/188/29 112/193/34 
s 16
f 113/196/35 109/201/31 108/202/30 111/197/33 
s 32
f 114/199/36 110/203/32 109/201/31 113/196/35 
s 64
f 112/193/34 107/188/29 110/203/32 114/199/36 
s 2
f 115/204/20 116/205/17 117/206/18 118/207/19 
s 4
f 119/208/22 120/209/23 121/210/24 122/211/21 
s 8
f 115/204/20 118/212/19 120/213/23 119/214/22 
s 16
f 118/207/19 117/206/18 121/210/24 120/209/23 
s 32
f 117/215/18 116/205/17 122/216/21 121/217/24 
s 64
f 116/205/17 115/204/20 119/214/22 122/216/21 
s 2
f 123/218/37 124/219/38 125/220/39 126/221/40 
s 8
f 123/222/37 126/223/40 127/224/41 128/225/42 
s 16
f 126/221/40 125/220/39 129/226/43 127/227/41 
s 32
f 125/220/39 124/228/38 130/229/44 129/226/43 
s 64
f 124/228/38 123/222/37 128/225/42 130/229/44 
s off
f 127/227/41 129/226/43 130/230/44 128/231/42 
s 1
f 131/232/59 132/233/60 133/234/61 134/235/62 135/236/63 136/237/64 137/238/65 
s 8
f 137/238/65 136/237/64 138/239/66 139/240/67 
f 136/241/64 135/242/63 140/243/68 138/244/66 
f 135/242/63 134/245/62 141/246/69 140/243/68 
f 134/245/62 133/247/61 142/248/70 141/246/69 
f 133/247/61 132/249/60 143/250/71 142/248/70 
f 132/249/60 131/251/59 144/252/72 143/250/71 
f 131/251/59 137/238/65 139/240/67 144/252/72 
s 1
f 144/253/72 139/240/67 138/239/66 140/254/68 141/255/69 142/256/70 143/257/71 
s 2
f 145/258/73 146/259/74 147/260/75 148/261/76 
s 4
f 149/262/77 150/263/78 151/264/79 152/265/80 
s 8
f 145/258/73 148/261/76 150/263/78 149/262/77 
s 16
f 148/261/76 147/266/75 151/267/79 150/263/78 
s 32
f 147/268/75 146/269/74 152/270/80 151/271/79 
s 64
f 146/272/74 145/258/73 149/262/77 152/273/80 
s 2
f 153/274/81 154/275/82 155/276/83 156/277/84 
s 4
f 157/278/85 158/279/86 159/280/87 160/281/88 
s 8
f 153/274/81 156/277/84 158/279/86 157/278/85 
s 16
f 156/277/84 155/282/83 159/283/87 158/279/86 
s 32
f 155/284/83 154/285/82 160/286/88 159/287/87 
s 64
f 154/288/82 153/274/81 157/278/85 160/289/88 
# 118 polygons

